<mxfile host="65bd71144e" modified="2020-10-08T12:29:45.121Z" agent="5.0 (Windows NT 10.0; Win64; x64) AppleWebKit/537.36 (KHTML, like Gecko) Code/1.49.3 Chrome/83.0.4103.122 Electron/9.2.1 Safari/537.36" version="13.6.5" etag="vpimTNVyOBqZE6tW54pm">
    <diagram id="QBbH4mL7cLB0dIDH5Kbu" name="Page-1">
        <mxGraphModel dx="908" dy="832" grid="1" gridSize="10" guides="1" tooltips="1" connect="1" arrows="1" fold="1" page="1" pageScale="1" pageWidth="827" pageHeight="1169" math="0" shadow="0">
            <root>
                <mxCell id="0"/>
                <mxCell id="1" parent="0"/>
                <mxCell id="2" value="SoyaMilk" style="swimlane;fontStyle=1;align=center;verticalAlign=top;childLayout=stackLayout;horizontal=1;startSize=26;horizontalStack=0;resizeParent=1;resizeParentMax=0;resizeLast=0;collapsible=1;marginBottom=0;" vertex="1" parent="1">
                    <mxGeometry x="340" y="180" width="140" height="164" as="geometry"/>
                </mxCell>
                <mxCell id="4" value="" style="line;strokeWidth=1;fillColor=none;align=left;verticalAlign=middle;spacingTop=-1;spacingLeft=3;spacingRight=3;rotatable=0;labelPosition=right;points=[];portConstraint=eastwest;" vertex="1" parent="2">
                    <mxGeometry y="26" width="140" height="8" as="geometry"/>
                </mxCell>
                <mxCell id="5" value="+ make(): void" style="text;strokeColor=none;fillColor=none;align=left;verticalAlign=top;spacingLeft=4;spacingRight=4;overflow=hidden;rotatable=0;points=[[0,0.5],[1,0.5]];portConstraint=eastwest;" vertex="1" parent="2">
                    <mxGeometry y="34" width="140" height="26" as="geometry"/>
                </mxCell>
                <mxCell id="6" value="+ select(): void" style="text;strokeColor=none;fillColor=none;align=left;verticalAlign=top;spacingLeft=4;spacingRight=4;overflow=hidden;rotatable=0;points=[[0,0.5],[1,0.5]];portConstraint=eastwest;" vertex="1" parent="2">
                    <mxGeometry y="60" width="140" height="26" as="geometry"/>
                </mxCell>
                <mxCell id="9" value="+ add(): void" style="text;strokeColor=none;fillColor=none;align=left;verticalAlign=top;spacingLeft=4;spacingRight=4;overflow=hidden;rotatable=0;points=[[0,0.5],[1,0.5]];portConstraint=eastwest;" vertex="1" parent="2">
                    <mxGeometry y="86" width="140" height="26" as="geometry"/>
                </mxCell>
                <mxCell id="8" value="+ soak(): void" style="text;strokeColor=none;fillColor=none;align=left;verticalAlign=top;spacingLeft=4;spacingRight=4;overflow=hidden;rotatable=0;points=[[0,0.5],[1,0.5]];portConstraint=eastwest;" vertex="1" parent="2">
                    <mxGeometry y="112" width="140" height="26" as="geometry"/>
                </mxCell>
                <mxCell id="7" value="+ beat(): void" style="text;strokeColor=none;fillColor=none;align=left;verticalAlign=top;spacingLeft=4;spacingRight=4;overflow=hidden;rotatable=0;points=[[0,0.5],[1,0.5]];portConstraint=eastwest;" vertex="1" parent="2">
                    <mxGeometry y="138" width="140" height="26" as="geometry"/>
                </mxCell>
                <mxCell id="17" value="PeanutSoyaMilk" style="swimlane;fontStyle=1;align=center;verticalAlign=top;childLayout=stackLayout;horizontal=1;startSize=26;horizontalStack=0;resizeParent=1;resizeParentMax=0;resizeLast=0;collapsible=1;marginBottom=0;" vertex="1" parent="1">
                    <mxGeometry x="470" y="420" width="160" height="34" as="geometry"/>
                </mxCell>
                <mxCell id="18" value="" style="line;strokeWidth=1;fillColor=none;align=left;verticalAlign=middle;spacingTop=-1;spacingLeft=3;spacingRight=3;rotatable=0;labelPosition=right;points=[];portConstraint=eastwest;" vertex="1" parent="17">
                    <mxGeometry y="26" width="160" height="8" as="geometry"/>
                </mxCell>
                <mxCell id="19" value="Extends" style="endArrow=block;endSize=16;endFill=0;html=1;" edge="1" parent="1" source="10" target="2">
                    <mxGeometry width="160" relative="1" as="geometry">
                        <mxPoint x="330" y="430" as="sourcePoint"/>
                        <mxPoint x="490" y="430" as="targetPoint"/>
                    </mxGeometry>
                </mxCell>
                <mxCell id="20" value="Extends" style="endArrow=block;endSize=16;endFill=0;html=1;" edge="1" parent="1" source="17" target="2">
                    <mxGeometry width="160" relative="1" as="geometry">
                        <mxPoint x="275.5428571428572" y="430" as="sourcePoint"/>
                        <mxPoint x="350" y="348.5625" as="targetPoint"/>
                    </mxGeometry>
                </mxCell>
                <mxCell id="10" value="BlackBeanSoyaMilk" style="swimlane;fontStyle=1;align=center;verticalAlign=top;childLayout=stackLayout;horizontal=1;startSize=26;horizontalStack=0;resizeParent=1;resizeParentMax=0;resizeLast=0;collapsible=1;marginBottom=0;" vertex="1" parent="1">
                    <mxGeometry x="210" y="420" width="160" height="34" as="geometry"/>
                </mxCell>
                <mxCell id="11" value="" style="line;strokeWidth=1;fillColor=none;align=left;verticalAlign=middle;spacingTop=-1;spacingLeft=3;spacingRight=3;rotatable=0;labelPosition=right;points=[];portConstraint=eastwest;" vertex="1" parent="10">
                    <mxGeometry y="26" width="160" height="8" as="geometry"/>
                </mxCell>
                <mxCell id="23" value="Use" style="endArrow=open;endSize=12;dashed=1;html=1;" edge="1" parent="1" source="21" target="2">
                    <mxGeometry width="160" relative="1" as="geometry">
                        <mxPoint x="330" y="430" as="sourcePoint"/>
                        <mxPoint x="490" y="430" as="targetPoint"/>
                    </mxGeometry>
                </mxCell>
                <mxCell id="21" value="Client" style="swimlane;fontStyle=1;align=center;verticalAlign=top;childLayout=stackLayout;horizontal=1;startSize=26;horizontalStack=0;resizeParent=1;resizeParentMax=0;resizeLast=0;collapsible=1;marginBottom=0;" vertex="1" parent="1">
                    <mxGeometry x="330" y="585" width="160" height="34" as="geometry"/>
                </mxCell>
                <mxCell id="22" value="" style="line;strokeWidth=1;fillColor=none;align=left;verticalAlign=middle;spacingTop=-1;spacingLeft=3;spacingRight=3;rotatable=0;labelPosition=right;points=[];portConstraint=eastwest;" vertex="1" parent="21">
                    <mxGeometry y="26" width="160" height="8" as="geometry"/>
                </mxCell>
                <mxCell id="24" value="Use" style="endArrow=open;endSize=12;dashed=1;html=1;" edge="1" parent="1" source="21" target="10">
                    <mxGeometry width="160" relative="1" as="geometry">
                        <mxPoint x="420" y="595" as="sourcePoint"/>
                        <mxPoint x="420" y="354" as="targetPoint"/>
                    </mxGeometry>
                </mxCell>
                <mxCell id="25" value="Use" style="endArrow=open;endSize=12;dashed=1;html=1;" edge="1" parent="1" source="21" target="17">
                    <mxGeometry width="160" relative="1" as="geometry">
                        <mxPoint x="430" y="605" as="sourcePoint"/>
                        <mxPoint x="430" y="364" as="targetPoint"/>
                    </mxGeometry>
                </mxCell>
            </root>
        </mxGraphModel>
    </diagram>
</mxfile>